<svg xmlns="http://www.w3.org/2000/svg" viewBox="0 0 82 82" width="82" height="82">
  <g transform="translate(0, 16.31)">
    <path fill="#00A664" d="M9.221 0.064H0.013L0 41.803a7.546 7.546 0 0 0 7.546 7.544c.472 0 1.675.027 1.675.027ZM14.295.064h9.208l.014 41.739a7.545 7.545 0 0 1-7.545 7.544c-.473 0-1.677.027-1.677.027ZM28.942 7.573v34.23a7.545 7.545 0 0 0 7.545 7.544c.473 0 1.676.027 1.676.027V0s-1.2.029-1.676.029a7.545 7.545 0 0 0-7.545 7.544ZM52.458 7.573A7.545 7.545 0 0 0 44.913.029C44.44.029 43.237 0 43.237 0v49.374s1.2-.027 1.676-.027a7.545 7.545 0 0 0 7.545-7.544ZM67.528.064h-9.207l-.013 41.739a7.546 7.546 0 0 0 7.545 7.544c.471 0 1.675.027 1.675.027ZM72.598.064h9.206l.015 41.739a7.547 7.547 0 0 1-7.546 7.544c-.471 0-1.675.027-1.675.027Z"/>
  </g>
</svg>
